# xmcd
#
# Track frame offsets:
#	150
#	15567
#	31427
#	45687
#	60331
#	75855
#	92387
#	108861
#	123945
#	140079
#	157829
#	173540
#	187170
#	199668
#
# Disc length: 2862 seconds
#
# Revision: 0
# Processed by: cddbd v1.5.2PL0 Copyright (c) Steve Scherf et al.
# Submitted via: EasyCDDAExtractor 16.0.6.1
#
DISCID=a10b2c0e
DTITLE=Συλλογικός δίσκος - Οι μούσες του Τσιτσάνη
DYEAR=1996
DGENRE=Λαϊκή
TTITLE0=Νίνου Μαρίκα - Τι σήμερα, τι αύριο, τι τώρα [Βασίλη Τσιτσάνη-Κώστα Βίρ
TTITLE0=βου]
TTITLE1=Μπέλλου Σωτηρία - Σαν απόκληρος γυρίζω [μουσ. στίχοι Βασίλη Τσιτσάνη]
TTITLE2=Σταυροπούλου Νταίζη - Μαζί μου δεν ταιριάζεις [μουσ. στίχοι Βασίλη Τσι
TTITLE2=τσάνη]
TTITLE3=Γεωργακοπούλου Ιωάννα - Αργοσβήνεις μόνη [μουσ. στίχοι Βασίλη Τσιτσάνη
TTITLE3=]
TTITLE4=Νίνου Μαρίκα - Η Σεράχ [μουσ. στίχοι Βασίλη Τσιτσάνη]
TTITLE5=Γαλάνη Δήμητρα - Η σκιά μου κι εγώ [Βασίλη Τσιτσάνη-Κώστα Βίρβου]
TTITLE6=Αλεξάνδρα - Κάθε βράδυ λυπημένη [μουσ. στίχοι Βασίλη Τσιτσάνη]
TTITLE7=Λαμπράκη Χαρούλα - Απόψε στις ακρογιαλιές [μουσ. στίχοι Βασίλη Τσιτσάν
TTITLE7=η]
TTITLE8=Μπέλλου Σωτηρία - Περιπλανώμενη ζωή [Βασίλη Τσιτσάνη-Κώστα Βίρβου]
TTITLE9=Γκρέϋ Καίτη - Μ' έχουν γελάσει δυό μαύρα μάτια [μουσ. στίχοι Βασίλη Τσ
TTITLE9=ιτσάνη]
TTITLE10=Χασκίλ Στέλλα - Το γράμμα [μουσ. στίχοι Βασίλη Τσιτσάνη]
TTITLE11=Χρυσάφη Άννα - Ο τσολιάς [Βασίλη Τσιτσάνη-Νίκου Λούπα]
TTITLE12=Νικολάου Λιζέτα - Έλα πάμε στον οντά μου [μουσ. στίχοι Βασίλη Τσιτσάν
TTITLE12=η]
TTITLE13=Μοσχολιού Βίκυ - Δεν είν' όνειρο η ζωή [μουσ. στίχοι Βασίλη Τσιτσάνη]
EXTD=
EXTT0=
EXTT1=
EXTT2=
EXTT3=
EXTT4=
EXTT5=
EXTT6=
EXTT7=
EXTT8=
EXTT9=
EXTT10=
EXTT11=
EXTT12=
EXTT13=
PLAYORDER=
